<svg width="20" height="17" viewBox="0 0 20 17" fill="none" xmlns="http://www.w3.org/2000/svg">
<path d="M6 12C6 12.7956 5.68393 13.5587 5.12132 14.1213C4.55871 14.6839 3.79565 15 3 15M14 12C14 12.7956 14.3161 13.5587 14.8787 14.1213C15.4413 14.6839 16.2044 15 17 15M10 12V16M5 9V6C5 5.73478 5.10536 5.48043 5.29289 5.29289C5.48043 5.10536 5.73478 5 6 5H14C14.2652 5 14.5196 5.10536 14.7071 5.29289C14.8946 5.48043 15 5.73478 15 6V9M1 3C1 2.46957 1.21071 1.96086 1.58579 1.58579C1.96086 1.21071 2.46957 1 3 1H17C17.5304 1 18.0391 1.21071 18.4142 1.58579C18.7893 1.96086 19 2.46957 19 3V7C19 7.53043 18.7893 8.03914 18.4142 8.41421C18.0391 8.78929 17.5304 9 17 9H3C2.46957 9 1.96086 8.78929 1.58579 8.41421C1.21071 8.03914 1 7.53043 1 7V3Z" stroke="#5C5AF3" stroke-width="2" stroke-linecap="round" stroke-linejoin="round"/>
</svg>
