<svg width="23" height="17" viewBox="0 0 23 17" fill="none" xmlns="http://www.w3.org/2000/svg">
<path d="M13 11L17.07 15.284C17.4128 15.6447 17.8632 15.8845 18.3538 15.9674C18.8444 16.0503 19.3487 15.9719 19.7909 15.744C20.2332 15.516 20.5896 15.1508 20.8067 14.7031C21.0238 14.2554 21.0899 13.7494 20.995 13.261L19.395 5.02901M7 5V7M6 6H8M13 6H15M14.5 1C15.8261 1 17.0978 1.52678 18.0355 2.46447C18.9732 3.40215 19.5 4.67392 19.5 6C19.5 7.32608 18.9732 8.59785 18.0355 9.53553C17.0978 10.4732 15.8261 11 14.5 11H9L4.985 15.227C4.64156 15.5886 4.1899 15.8288 3.69808 15.9113C3.20626 15.9939 2.70094 15.9143 2.25826 15.6847C1.81558 15.4551 1.45952 15.0878 1.24376 14.6382C1.02799 14.1886 0.964198 13.681 1.062 13.192L2.696 5.019C2.92281 3.88546 3.53539 2.86553 4.42949 2.13278C5.3236 1.40003 6.44399 0.999727 7.6 1H14.5Z" stroke="#5C5AF3" stroke-width="2" stroke-linecap="round" stroke-linejoin="round"/>
</svg>
