<svg width="20" height="20" viewBox="0 0 20 20" fill="none" xmlns="http://www.w3.org/2000/svg">
<path d="M3 9C3.53043 9 4.03914 9.21071 4.41421 9.58579C4.78929 9.96086 5 10.4696 5 11V13H15V11C15 10.4696 15.2107 9.96086 15.5858 9.58579C15.9609 9.21071 16.4696 9 17 9M3 9C2.46957 9 1.96086 9.21071 1.58579 9.58579C1.21071 9.96086 1 10.4696 1 11V15C1 15.5304 1.21071 16.0391 1.58579 16.4142C1.96086 16.7893 2.46957 17 3 17H17C17.5304 17 18.0391 16.7893 18.4142 16.4142C18.7893 16.0391 19 15.5304 19 15V11C19 10.4696 18.7893 9.96086 18.4142 9.58579C18.0391 9.21071 17.5304 9 17 9M3 9V4C3 3.20435 3.31607 2.44129 3.87868 1.87868C4.44129 1.31607 5.20435 1 6 1H14C14.7956 1 15.5587 1.31607 16.1213 1.87868C16.6839 2.44129 17 3.20435 17 4V9M4 17V19M16 17V19" stroke="#5C5AF3" stroke-width="2" stroke-linecap="round" stroke-linejoin="round"/>
</svg>
